<svg width="886" height="701" viewBox="0 0 886 701" fill="none" xmlns="http://www.w3.org/2000/svg">
<path d="M886 500.683H0" stroke="#263238" stroke-width="1.0816" stroke-miterlimit="10"/>
<path d="M162.558 242.619C162.558 236.352 165.468 231.876 171.738 231.876C178.007 231.876 181.142 236.352 181.142 242.619V264.33C181.142 270.597 178.231 275.073 171.738 275.073C165.245 275.073 162.558 270.597 162.558 264.33V242.619ZM165.245 264.33C165.245 268.806 167.036 272.387 171.738 272.387C176.44 272.387 178.231 269.03 178.231 264.33V242.395C178.231 237.919 176.44 234.338 171.738 234.338C167.036 234.338 165.245 237.695 165.245 242.395V264.33Z" fill="#263238"/>
<path d="M185.619 242.619C185.619 236.352 188.53 231.876 194.799 231.876C201.069 231.876 204.203 236.352 204.203 242.619V264.33C204.203 270.597 201.293 275.073 194.799 275.073C188.306 275.073 185.619 270.597 185.619 264.33V242.619ZM188.306 264.33C188.306 268.806 190.097 272.387 194.799 272.387C199.501 272.387 201.293 269.03 201.293 264.33V242.395C201.293 237.919 199.501 234.338 194.799 234.338C190.097 234.338 188.306 237.695 188.306 242.395V264.33Z" fill="#263238"/>
<path d="M217.415 232.324C223.908 232.324 226.595 236.353 226.595 242.62V247.32C226.595 254.035 223.46 257.392 216.743 257.392H211.37V274.85H208.683V232.548H217.415V232.324ZM216.743 254.706C221.669 254.706 223.684 252.468 223.684 247.32V242.396C223.684 237.696 222.117 234.786 217.415 234.786H211.37V254.482H216.743V254.706Z" fill="#263238"/>
<path d="M248.537 242.396V243.291H245.85V242.172C245.85 237.695 244.059 234.338 239.581 234.338C235.103 234.338 233.311 237.695 233.311 242.172C233.311 252.467 248.537 252.691 248.537 264.33C248.537 270.373 245.85 274.849 239.357 274.849C232.864 274.849 230.177 270.373 230.177 264.33V262.092H232.864V264.33C232.864 268.806 234.655 272.164 239.357 272.164C244.059 272.164 245.85 268.806 245.85 264.33C245.85 254.258 230.625 254.034 230.625 242.172C230.625 235.905 233.311 231.652 239.581 231.652C245.85 231.652 248.537 236.353 248.537 242.396Z" fill="#263238"/>
<path d="M255.478 269.254V274.626H252.791V269.254H255.478Z" fill="#263238"/>
<path d="M263.091 269.254V274.626H260.404V269.254H263.091Z" fill="#263238"/>
<path d="M270.481 269.254V274.626H267.794V269.254H270.481Z" fill="#263238"/>
<path d="M63.3662 418.989L111.058 306.632H139.718V418.989H152.033V442.714H139.718V472.929H113.745V442.714H63.3662V418.989ZM113.745 418.989V356.543L87.3243 418.989H113.745Z" fill="#263238"/>
<path d="M161.662 346.471C161.662 319.837 175.768 304.617 201.294 304.617C226.819 304.617 240.925 319.837 240.925 346.471V433.089C240.925 459.723 226.819 474.943 201.294 474.943C175.768 474.943 161.662 459.723 161.662 433.089V346.471ZM187.859 434.656C187.859 446.518 193.009 450.995 201.518 450.995C210.026 450.995 215.176 446.518 215.176 434.656V344.681C215.176 332.818 210.026 328.342 201.518 328.342C193.009 328.342 187.859 332.818 187.859 344.681V434.656Z" fill="#263238"/>
<path d="M251.895 418.989L299.363 306.632H328.023V418.989H340.338V442.714H328.023V472.929H302.274V442.714H251.895V418.989ZM302.274 418.989V356.543L275.853 418.989H302.274Z" fill="#263238"/>
<path d="M74.7868 512.992C81.2801 512.992 83.7431 517.021 83.7431 523.064V527.54C83.7431 534.031 80.8323 537.388 74.1151 537.388H68.9652V554.399H66.2783V512.992H74.7868ZM74.1151 534.926C78.8171 534.926 81.0562 532.688 81.0562 527.764V522.84C81.0562 518.364 79.4888 515.454 74.7868 515.454H68.9652V534.926H74.1151Z" fill="#263238"/>
<path d="M91.1315 545.222L89.1163 554.399H86.6533L95.6096 512.992H99.6399L108.82 554.399H106.133L104.118 545.222H91.1315ZM91.3554 542.76H103.446L97.4008 515.902L91.3554 542.76Z" fill="#263238"/>
<path d="M130.539 523.065V526.198H127.852V522.841C127.852 518.364 126.061 515.007 121.583 515.007C117.104 515.007 115.313 518.364 115.313 522.841V544.327C115.313 548.804 117.104 552.161 121.583 552.161C126.061 552.161 127.852 548.804 127.852 544.327V535.375H122.254V532.913H130.315V544.104C130.315 550.147 127.628 554.623 121.359 554.623C115.089 554.623 112.402 550.147 112.402 544.104V522.841C112.402 516.798 115.089 512.321 121.359 512.321C127.628 512.321 130.539 517.021 130.539 523.065Z" fill="#263238"/>
<path d="M149.122 532.241V534.703H137.927V551.937H151.585V554.399H135.24V512.992H151.585V515.454H137.927V532.241H149.122Z" fill="#263238"/>
<path d="M167.483 554.399H165.021V512.992H168.603L181.142 547.908V512.992H183.605V554.399H180.47L167.483 517.469V554.399Z" fill="#263238"/>
<path d="M187.858 523.064C187.858 517.021 190.545 512.545 196.815 512.545C203.084 512.545 205.995 517.021 205.995 523.064V544.327C205.995 550.37 203.308 554.847 196.815 554.847C190.321 554.847 187.858 550.37 187.858 544.327V523.064ZM190.769 544.551C190.769 549.027 192.56 552.385 197.039 552.385C201.517 552.385 203.532 549.027 203.532 544.551V523.064C203.532 518.588 201.741 515.231 197.039 515.231C192.337 515.231 190.769 518.588 190.769 523.064V544.551Z" fill="#263238"/>
<path d="M217.637 554.399V515.454H209.129V512.992H228.609V515.454H220.1V554.399H217.637Z" fill="#263238"/>
<path d="M254.807 533.136V535.598H244.059V554.399H241.372V512.992H257.046V515.454H244.059V533.136H254.807Z" fill="#263238"/>
<path d="M261.077 523.064C261.077 517.021 263.764 512.545 270.033 512.545C276.303 512.545 279.214 517.021 279.214 523.064V544.327C279.214 550.37 276.527 554.847 270.033 554.847C263.54 554.847 261.077 550.37 261.077 544.327V523.064ZM263.764 544.551C263.764 549.027 265.555 552.385 270.033 552.385C274.512 552.385 276.527 549.027 276.527 544.551V523.064C276.527 518.588 274.735 515.231 270.033 515.231C265.331 515.231 263.764 518.588 263.764 523.064V544.551Z" fill="#263238"/>
<path d="M286.378 544.327C286.378 548.803 287.946 552.16 292.648 552.16C297.35 552.16 298.917 548.803 298.917 544.327V512.992H301.38V544.327C301.38 550.146 298.917 554.846 292.648 554.846C286.378 554.846 283.691 550.37 283.691 544.327V512.992H286.378V544.327Z" fill="#263238"/>
<path d="M308.545 554.399H306.082V512.992H309.665L322.203 547.908V512.992H324.666V554.399H321.532L308.545 517.469V554.399Z" fill="#263238"/>
<path d="M338.324 512.992C344.818 512.992 347.505 517.245 347.505 523.288V544.103C347.505 550.146 344.818 554.399 338.324 554.399H329.368V512.992H338.324ZM338.324 551.937C343.026 551.937 344.818 548.803 344.818 544.327V523.288C344.818 518.811 342.803 515.678 338.324 515.678H332.055V552.16H338.324V551.937Z" fill="#263238"/>
<path d="M834.501 50.8068C834.501 50.8068 834.501 39.8397 819.051 24.3962C803.601 8.95274 793.75 0 793.75 0C793.75 0 785.913 25.5153 800.467 40.9588C810.99 51.7021 822.41 61.7739 834.724 70.7267V50.8068H834.501Z" fill="#00B533"/>
<path d="M812.111 119.967C812.111 119.967 812.111 109 796.662 93.5564C781.212 78.1129 771.136 69.1602 771.136 69.1602C771.136 69.1602 763.3 94.4517 777.853 110.119C788.377 121.086 799.796 130.934 812.111 139.887V119.967Z" fill="#00B533"/>
<path d="M833.604 69.6078C833.604 69.6078 834.724 58.6407 851.741 44.7639C868.758 30.8872 879.505 23.2773 879.505 23.2773C879.505 23.2773 884.431 49.4641 868.534 63.1171C856.891 72.7413 844.352 81.4702 831.365 89.08L833.604 69.6078Z" fill="#00B533"/>
<path d="M806.512 151.078C806.512 151.078 808.751 140.335 827.112 128.472C845.472 116.61 857.115 110.119 857.115 110.119C857.115 110.119 859.354 136.53 842.113 148.616C829.575 157.121 816.14 164.283 802.258 170.55L806.512 151.078Z" fill="#00B533"/>
<path d="M811.663 239.934C811.663 239.934 811.663 228.967 827.113 213.523C842.563 198.08 852.415 189.127 852.415 189.127C852.415 189.127 860.251 214.642 845.697 230.086C835.174 241.053 823.754 250.901 811.439 259.854L811.663 239.934Z" fill="#00B533"/>
<path d="M811.215 261.42C811.215 261.42 812.782 250.453 799.572 232.995C786.361 215.537 777.853 205.241 777.853 205.241C777.853 205.241 766.657 229.19 778.525 246.648C787.481 258.958 797.333 270.372 808.08 281.116L811.215 261.42Z" fill="#00B533"/>
<path d="M795.989 325.88C795.989 325.88 795.989 314.913 811.439 299.469C826.888 284.026 836.964 275.073 836.964 275.073C836.964 275.073 844.801 300.589 830.247 316.032C819.723 326.999 808.304 336.847 795.989 345.8V325.88Z" fill="#00B533"/>
<path d="M806.289 384.073C806.289 384.073 803.603 373.33 814.574 354.529C825.545 335.728 832.934 324.537 832.934 324.537C832.934 324.537 846.817 347.143 836.965 365.72C829.576 378.925 820.843 391.459 811.439 403.321L806.289 384.073Z" fill="#00B533"/>
<path d="M835.846 47.8975C835.174 59.3122 833.607 70.9508 831.592 82.1417C825.546 113.7 810.32 134.068 804.051 162.493C797.782 190.918 815.47 227.624 810.768 264.33C806.066 301.036 791.736 321.404 795.99 345.8C800.245 370.196 821.516 436.447 821.516 436.447" stroke="#263238" stroke-width="1.0816" stroke-linecap="round" stroke-linejoin="round"/>
<path d="M833.381 76.994L850.174 64.2363" stroke="#263238" stroke-width="1.0816" stroke-linecap="round" stroke-linejoin="round"/>
<path d="M834.278 62.2212L827.337 49.9111" stroke="#263238" stroke-width="1.0816" stroke-linecap="round" stroke-linejoin="round"/>
<path d="M805.169 161.374C805.169 161.374 819.051 150.854 833.381 140.559" stroke="#263238" stroke-width="1.0816" stroke-linecap="round" stroke-linejoin="round"/>
<path d="M812.11 139.663C812.11 139.663 800.467 116.834 787.257 101.838" stroke="#263238" stroke-width="1.0816" stroke-linecap="round" stroke-linejoin="round"/>
<path d="M812.109 255.6C820.17 240.828 830.246 227.399 842.113 215.761" stroke="#263238" stroke-width="1.0816" stroke-linecap="round" stroke-linejoin="round"/>
<path d="M809.423 271.044C805.169 260.972 800.243 251.572 794.198 242.395C786.137 230.309 785.018 228.742 785.018 228.742" stroke="#263238" stroke-width="1.0816" stroke-linecap="round" stroke-linejoin="round"/>
<path d="M795.989 346.023C799.572 337.294 803.826 328.789 808.528 320.508C813.454 312.898 818.828 305.736 824.873 299.245" stroke="#263238" stroke-width="1.0816" stroke-linecap="round" stroke-linejoin="round"/>
<path d="M811.438 403.097C810.543 394.816 812.11 386.311 815.693 378.701C821.514 367.51 828.008 352.738 830.918 346.919" stroke="#263238" stroke-width="1.0816" stroke-linecap="round" stroke-linejoin="round"/>
<path d="M733.295 198.304C733.295 198.304 732.175 191.365 740.012 179.95C747.849 168.536 753.222 162.045 753.222 162.045C753.222 162.045 760.835 177.041 753.446 188.456C748.072 196.513 741.803 203.899 735.31 210.837L733.295 198.304Z" fill="#00B533"/>
<path d="M754.79 239.038C754.79 239.038 753.67 232.1 761.507 220.685C769.344 209.27 774.717 202.779 774.717 202.779C774.717 202.779 782.33 217.775 774.941 229.19C769.568 237.247 763.298 244.633 756.805 251.572L754.79 239.038Z" fill="#00B533"/>
<path d="M735.982 209.942C735.982 209.942 733.967 203.227 721.876 196.289C709.785 189.351 702.172 185.77 702.172 185.77C702.172 185.77 701.948 202.78 713.368 209.718C721.652 214.642 730.384 218.671 739.565 222.028L735.982 209.942Z" fill="#00B533"/>
<path d="M761.732 258.063C761.732 258.063 759.045 251.572 746.282 245.977C733.52 240.381 725.459 237.695 725.459 237.695C725.459 237.695 727.026 254.482 739.117 260.301C747.85 264.106 757.03 267.463 766.434 269.701L761.732 258.063Z" fill="#00B533"/>
<path d="M768.225 314.242C768.225 314.242 767.105 307.303 755.686 299.246C744.267 291.188 737.102 286.712 737.102 286.712C737.102 286.712 735.087 303.498 745.61 311.556C753.447 317.151 761.732 322.299 770.24 326.552L768.225 314.242Z" fill="#00B533"/>
<path d="M770.687 328.118C770.687 328.118 768.448 321.404 774.942 309.093C781.435 296.783 785.465 289.397 785.465 289.397C785.465 289.397 795.093 303.274 789.496 315.36C785.241 324.089 780.315 332.371 774.718 340.204L770.687 328.118Z" fill="#00B533"/>
<path d="M790.167 383.849C790.167 383.849 791.062 376.911 801.81 368.182C812.557 359.453 819.722 354.753 819.722 354.753C819.722 354.753 822.857 371.316 812.557 380.044C805.168 386.088 797.108 391.683 788.823 396.383L790.167 383.849Z" fill="#00B533"/>
<path d="M787.257 366.615C787.257 366.615 786.138 359.676 774.718 351.619C763.299 343.561 756.134 339.085 756.134 339.085C756.134 339.085 754.119 355.871 764.642 363.929C772.479 369.524 780.764 374.672 789.272 378.925L787.257 366.615Z" fill="#00B533"/>
<path d="M787.032 404.216C787.032 404.216 787.704 397.278 778.747 386.534C769.791 375.791 763.969 369.748 763.969 369.748C763.969 369.748 757.7 385.415 765.985 395.935C772.03 403.321 778.747 410.259 786.136 416.75L787.032 404.216Z" fill="#00B533"/>
<path d="M732.176 196.736C733.967 203.899 735.982 210.837 738.669 217.775C745.834 237.024 757.701 247.991 764.642 265.225C771.583 282.459 764.642 307.303 771.359 329.908C778.077 352.514 789.496 363.481 789.496 379.372C789.496 395.263 783.45 438.908 783.45 438.908" stroke="#263238" stroke-width="1.0816" stroke-linecap="round" stroke-linejoin="round"/>
<path d="M736.877 214.642L725.01 208.375" stroke="#263238" stroke-width="1.0816" stroke-linecap="round" stroke-linejoin="round"/>
<path d="M734.639 205.465L737.773 196.96" stroke="#263238" stroke-width="1.0816" stroke-linecap="round" stroke-linejoin="round"/>
<path d="M763.746 264.553C763.746 264.553 753.894 259.405 743.818 254.481" stroke="#263238" stroke-width="1.0816" stroke-linecap="round" stroke-linejoin="round"/>
<path d="M757.029 251.572C759.94 242.395 763.747 233.442 768.449 225.161" stroke="#263238" stroke-width="1.0816" stroke-linecap="round" stroke-linejoin="round"/>
<path d="M769.569 324.313C763.076 316.032 755.239 308.646 746.507 302.603" stroke="#263238" stroke-width="1.0816" stroke-linecap="round" stroke-linejoin="round"/>
<path d="M772.926 333.714C774.493 326.999 776.732 320.508 779.195 314.018C783.002 305.512 783.673 304.617 783.673 304.617" stroke="#263238" stroke-width="1.0816" stroke-linecap="round" stroke-linejoin="round"/>
<path d="M789.049 391.235C792.855 386.535 797.109 382.058 801.812 378.029C804.722 375.791 807.409 373.553 810.096 370.867" stroke="#263238" stroke-width="1.0816" stroke-linecap="round" stroke-linejoin="round"/>
<path d="M789.495 379.149C786.361 374.001 782.778 369.077 778.748 364.6C774.941 360.348 770.687 356.543 766.209 352.962" stroke="#263238" stroke-width="1.0816" stroke-linecap="round" stroke-linejoin="round"/>
<path d="M786.138 416.75C785.69 411.379 783.899 406.231 780.764 401.978C775.838 395.487 770.24 386.982 767.777 383.625" stroke="#263238" stroke-width="1.0816" stroke-linecap="round" stroke-linejoin="round"/>
<path d="M836.292 514.336H768.224C764.642 514.336 761.731 511.426 761.731 507.845L751.655 431.299H852.861L842.785 507.845C842.785 511.426 839.875 514.336 836.292 514.336Z" fill="#263238"/>
<path d="M851.965 444.504H751.655C747.401 444.504 743.818 440.923 743.818 436.671C743.818 432.418 747.401 428.837 751.655 428.837H851.965C856.444 428.837 859.802 432.418 859.802 436.671C860.026 440.923 856.444 444.504 851.965 444.504Z" fill="#263238"/>
<path d="M755.46 604.087C749.639 604.087 744.937 599.387 744.937 593.568C744.937 592.001 745.385 590.434 746.056 588.867C750.311 580.362 747.176 570.067 738.891 565.366C722.994 555.295 686.273 553.728 673.51 553.952H673.287C667.465 553.952 662.763 549.251 662.539 543.432C662.539 537.613 667.241 532.913 673.063 532.689C678.436 532.689 726.353 532.241 750.311 547.461C774.045 562.681 770.238 587.077 765.088 598.044C763.073 601.625 759.491 603.863 755.46 604.087Z" fill="#263238"/>
<path d="M804.048 659.818L801.809 667.651L766.656 609.682L765.536 597.148L804.048 659.818Z" fill="white" stroke="#263238" stroke-width="1.0816" stroke-linecap="round" stroke-linejoin="round"/>
<path d="M801.811 667.651L812.782 662.28L814.797 654.67L804.05 659.818L801.811 667.651Z" fill="white" stroke="#263238" stroke-width="1.0816" stroke-linecap="round" stroke-linejoin="round"/>
<path d="M761.059 590.657L801.81 589.314L814.796 654.67L804.049 659.817L761.059 590.657Z" fill="white" stroke="#263238" stroke-width="1.0816" stroke-linecap="round" stroke-linejoin="round"/>
<path d="M755.461 593.344L796.212 662.056L782.778 668.547L722.547 619.307L755.461 593.344Z" fill="white" stroke="#263238" stroke-width="1.0816" stroke-linecap="round" stroke-linejoin="round"/>
<path d="M782.779 668.547L780.988 675.485L720.085 627.14L722.548 619.307L782.779 668.547Z" fill="white" stroke="#263238" stroke-width="1.0816" stroke-linecap="round" stroke-linejoin="round"/>
<path d="M782.778 668.546L796.212 662.056L794.421 668.994L780.986 675.485L782.778 668.546Z" fill="white" stroke="#263238" stroke-width="1.0816" stroke-linecap="round" stroke-linejoin="round"/>
<path d="M763.521 624.23C774.898 624.23 784.121 615.011 784.121 603.639C784.121 592.267 774.898 583.048 763.521 583.048C752.145 583.048 742.922 592.267 742.922 603.639C742.922 615.011 752.145 624.23 763.521 624.23Z" fill="#00B533" stroke="#263238" stroke-width="1.0816" stroke-linecap="round" stroke-linejoin="round"/>
<path d="M327.352 659.818L329.815 667.651L364.968 609.682L365.864 597.148L327.352 659.818Z" fill="white" stroke="#263238" stroke-width="1.0816" stroke-linecap="round" stroke-linejoin="round"/>
<path d="M329.815 667.651L318.619 662.28L316.828 654.67L327.352 659.818L329.815 667.651Z" fill="white" stroke="#263238" stroke-width="1.0816" stroke-linecap="round" stroke-linejoin="round"/>
<path d="M370.566 590.657L329.815 589.314L316.828 654.67L327.352 659.817L370.566 590.657Z" fill="white" stroke="#263238" stroke-width="1.0816" stroke-linecap="round" stroke-linejoin="round"/>
<path d="M376.162 593.344L335.411 662.056L348.846 668.547L409.077 619.307L376.162 593.344Z" fill="white" stroke="#263238" stroke-width="1.0816" stroke-linecap="round" stroke-linejoin="round"/>
<path d="M348.846 668.547L350.637 675.485L411.316 627.14L409.077 619.307L348.846 668.547Z" fill="white" stroke="#263238" stroke-width="1.0816" stroke-linecap="round" stroke-linejoin="round"/>
<path d="M348.846 668.546L335.411 662.056L337.202 668.994L350.637 675.485L348.846 668.546Z" fill="white" stroke="#263238" stroke-width="1.0816" stroke-linecap="round" stroke-linejoin="round"/>
<path d="M369.445 611.025C363.624 611.025 358.922 606.325 358.922 600.506C358.922 597.372 360.265 594.239 362.728 592.224C446.693 523.96 429.676 421.898 429.453 421.003C428.557 415.184 432.587 409.812 438.185 408.917C443.783 408.022 448.932 411.827 450.052 417.198C450.948 421.898 469.532 532.465 375.939 608.563C374.148 610.13 371.908 611.025 369.445 611.025Z" fill="#263238"/>
<path d="M490.643 404.881C497.858 383.182 486.11 359.744 464.401 352.531C442.693 345.319 419.246 357.063 412.031 378.762C404.815 400.462 416.564 423.9 438.272 431.112C459.98 438.325 483.427 426.581 490.643 404.881Z" fill="#ADADAD" stroke="#263238" stroke-width="1.0816" stroke-linecap="round" stroke-linejoin="round"/>
<path d="M382.742 618.17C390.787 610.129 390.787 597.092 382.743 589.05C374.698 581.009 361.655 581.009 353.611 589.05C345.566 597.092 345.566 610.129 353.611 618.17C361.655 626.212 374.698 626.212 382.742 618.17Z" fill="#00B533" stroke="#263238" stroke-width="1.0816" stroke-linecap="round" stroke-linejoin="round"/>
<path d="M562.006 562.233C598.239 562.233 627.611 534.776 627.611 500.906C627.611 467.037 598.239 439.58 562.006 439.58C525.774 439.58 496.401 467.037 496.401 500.906C496.401 534.776 525.774 562.233 562.006 562.233Z" fill="#ADADAD" stroke="#263238" stroke-width="1.0816" stroke-linecap="round" stroke-linejoin="round"/>
<path d="M527.972 474.719L534.017 498.668C537.824 510.978 549.691 518.588 562.453 517.021C575.216 515.454 584.844 504.935 585.516 492.177L586.635 468.005L527.972 474.719Z" fill="#263238" stroke="#263238" stroke-width="1.0816" stroke-linecap="round" stroke-linejoin="round"/>
<path d="M657.39 354.305C651.12 354.305 645.075 353.634 639.029 351.843L640.821 346.919C641.044 346.919 670.6 356.544 700.38 334.609L703.515 338.862C690.304 348.934 673.959 354.305 657.39 354.305Z" fill="#263238"/>
<path d="M690.304 394.145C666.122 358.782 638.581 361.468 638.357 361.468L637.686 356.32C639.029 356.096 668.809 353.186 694.782 391.235L690.304 394.145Z" fill="#263238"/>
<path d="M684.259 419.212C652.912 409.588 634.104 367.957 633.208 366.167L638.134 363.929C638.358 364.376 656.718 405.111 685.826 414.064L684.259 419.212Z" fill="#263238"/>
<path d="M700.604 338.19L708.888 332.595" stroke="#263238" stroke-width="1.0816" stroke-miterlimit="10"/>
<path d="M690.08 387.878L695.902 399.293" stroke="#263238" stroke-width="1.0816" stroke-miterlimit="10"/>
<path d="M680.229 414.736C684.707 415.855 689.185 416.527 693.887 416.527" stroke="#263238" stroke-width="1.0816" stroke-miterlimit="10"/>
<path d="M442.663 346.695L450.5 401.307L644.851 381.387L644.179 324.761L442.663 346.695Z" fill="white" stroke="#263238" stroke-width="1.0816" stroke-linecap="round" stroke-linejoin="round"/>
<path d="M450.5 401.307L485.206 489.267L634.999 474.271L644.851 381.387L450.5 401.307Z" fill="#E5E5E5" stroke="#263238" stroke-width="1.0816" stroke-linecap="round" stroke-linejoin="round"/>
<path d="M497.297 424.36L510.955 464.647C512.97 470.69 519.016 474.495 525.285 473.6L585.292 467.109C591.562 466.438 596.488 461.29 596.936 455.023L600.742 412.721C601.19 407.574 597.383 403.097 592.234 402.426C591.562 402.426 590.89 402.426 590.218 402.426L505.358 411.826C500.208 412.498 496.401 416.974 497.073 422.122C497.073 423.017 497.073 423.689 497.297 424.36Z" fill="#263238"/>
<path d="M497.297 446.519L522.151 444.281L529.987 422.794L548.572 456.143L557.976 431.299L562.678 439.133L607.459 433.761" stroke="white" stroke-width="1.0816" stroke-linecap="round" stroke-linejoin="round"/>
<path d="M497.297 424.36L510.955 464.647C512.97 470.69 519.016 474.495 525.285 473.6L585.292 467.109C591.562 466.438 596.488 461.29 596.936 455.023L600.742 412.721C601.19 407.574 597.383 403.097 592.234 402.426C591.562 402.426 590.89 402.426 590.218 402.426L505.358 411.826C500.208 412.498 496.401 416.974 497.073 422.122C497.073 423.017 497.073 423.689 497.297 424.36Z" stroke="#263238" stroke-width="1.0816" stroke-linecap="round" stroke-linejoin="round"/>
<path d="M622.461 418.093C628.52 418.093 633.432 413.183 633.432 407.126C633.432 401.069 628.52 396.159 622.461 396.159C616.401 396.159 611.489 401.069 611.489 407.126C611.489 413.183 616.401 418.093 622.461 418.093Z" fill="white" stroke="#263238" stroke-width="1.0816" stroke-linecap="round" stroke-linejoin="round"/>
<path d="M631.193 441.146C631.193 446.742 626.715 451.442 620.893 451.442C615.072 451.442 610.594 446.966 610.594 441.146C610.594 435.551 615.072 430.851 620.893 430.851C626.715 430.851 631.193 435.551 631.193 441.146Z" fill="#00B533" stroke="#263238" stroke-width="1.0816" stroke-linecap="round" stroke-linejoin="round"/>
<path d="M489.908 418.988C491.699 424.808 488.341 430.851 482.519 432.641C476.698 434.432 470.652 431.075 468.861 425.255C467.07 419.436 470.428 413.393 476.026 411.602C482.071 409.812 488.117 413.169 489.908 418.988C489.908 418.765 489.908 418.988 489.908 418.988Z" fill="#00B533"/>
<path d="M489.908 418.988C491.699 424.808 488.341 430.851 482.519 432.641C476.698 434.432 470.652 431.075 468.861 425.255C467.07 419.436 470.428 413.393 476.026 411.602C482.071 409.812 488.117 413.169 489.908 418.988ZM489.908 418.988C489.908 418.765 489.908 418.988 489.908 418.988Z" stroke="#263238" stroke-width="1.0816" stroke-linecap="round" stroke-linejoin="round"/>
<path d="M487.892 465.319C493.581 465.319 498.192 460.709 498.192 455.023C498.192 449.337 493.581 444.728 487.892 444.728C482.204 444.728 477.593 449.337 477.593 455.023C477.593 460.709 482.204 465.319 487.892 465.319Z" fill="white" stroke="#263238" stroke-width="1.0816" stroke-linecap="round" stroke-linejoin="round"/>
<path d="M522.599 572.528C538.551 572.528 551.483 560.002 551.483 544.551C551.483 529.099 538.551 516.573 522.599 516.573C506.647 516.573 493.715 529.099 493.715 544.551C493.715 560.002 506.647 572.528 522.599 572.528Z" fill="#00B533" stroke="#263238" stroke-width="1.0816" stroke-linecap="round" stroke-linejoin="round"/>
<path d="M480.055 606.997L506.476 547.461C508.939 542.089 514.76 539.403 520.358 541.194C526.18 542.985 529.538 548.804 528.195 554.623L510.73 632.736L480.055 606.997Z" fill="#263238" stroke="#263238" stroke-width="1.0816" stroke-linecap="round" stroke-linejoin="round"/>
<path d="M471.323 516.126L529.091 652.208L459.68 661.832C459.68 661.832 418.257 619.53 390.269 539.403L471.323 516.126Z" fill="#ADADAD" stroke="#263238" stroke-width="1.0816" stroke-linecap="round" stroke-linejoin="round"/>
<path d="M471.324 515.902L474.011 502.921L531.779 641.688L529.092 651.984L471.324 515.902Z" fill="white" stroke="#263238" stroke-width="1.0816" stroke-linecap="round" stroke-linejoin="round"/>
<path d="M474.01 502.921L394.971 526.869L390.269 539.18L471.323 515.902L474.01 502.921Z" fill="white" stroke="#263238" stroke-width="1.0816" stroke-linecap="round" stroke-linejoin="round"/>
<path d="M395.643 551.937L475.353 527.541" stroke="#263238" stroke-width="1.0816" stroke-linecap="round" stroke-linejoin="round"/>
<path d="M401.913 566.261L482.072 544.551" stroke="#263238" stroke-width="1.0816" stroke-linecap="round" stroke-linejoin="round"/>
<path d="M407.958 581.257L489.012 559.547" stroke="#263238" stroke-width="1.0816" stroke-linecap="round" stroke-linejoin="round"/>
<path d="M416.914 599.61L495.729 576.557" stroke="#263238" stroke-width="1.0816" stroke-linecap="round" stroke-linejoin="round"/>
<path d="M425.197 614.159L504.013 593.567" stroke="#263238" stroke-width="1.0816" stroke-linecap="round" stroke-linejoin="round"/>
<path d="M433.931 627.588L510.731 609.011" stroke="#263238" stroke-width="1.0816" stroke-linecap="round" stroke-linejoin="round"/>
<path d="M443.783 640.345L515.433 623.335" stroke="#263238" stroke-width="1.0816" stroke-linecap="round" stroke-linejoin="round"/>
<path d="M450.947 650.864L522.15 639.002" stroke="#263238" stroke-width="1.0816" stroke-linecap="round" stroke-linejoin="round"/>
<path d="M599.621 572.528C615.574 572.528 628.505 560.002 628.505 544.551C628.505 529.099 615.574 516.573 599.621 516.573C583.669 516.573 570.737 529.099 570.737 544.551C570.737 560.002 583.669 572.528 599.621 572.528Z" fill="#00B533" stroke="#263238" stroke-width="1.0816" stroke-linecap="round" stroke-linejoin="round"/>
<path d="M642.163 606.997L615.742 547.685C613.279 542.313 607.457 539.627 601.86 541.418C596.262 543.208 592.679 549.027 594.023 554.847L611.488 632.96L642.163 606.997Z" fill="#263238" stroke="#263238" stroke-width="1.0816" stroke-linecap="round" stroke-linejoin="round"/>
<path d="M651.121 516.126L593.354 652.208L662.765 661.832C662.765 661.832 704.187 619.53 732.176 539.403L651.121 516.126Z" fill="#ADADAD" stroke="#263238" stroke-width="1.0816" stroke-linecap="round" stroke-linejoin="round"/>
<path d="M651.12 515.902L648.433 502.921L590.441 641.688L593.352 651.984L651.12 515.902Z" fill="white" stroke="#263238" stroke-width="1.0816" stroke-linecap="round" stroke-linejoin="round"/>
<path d="M648.435 502.921L727.25 526.869L732.176 539.18L651.121 515.902L648.435 502.921Z" fill="white" stroke="#263238" stroke-width="1.0816" stroke-linecap="round" stroke-linejoin="round"/>
<path d="M726.578 551.937L647.091 527.541" stroke="#263238" stroke-width="1.0816" stroke-linecap="round" stroke-linejoin="round"/>
<path d="M720.531 566.261L640.148 544.551" stroke="#263238" stroke-width="1.0816" stroke-linecap="round" stroke-linejoin="round"/>
<path d="M714.262 581.257L633.432 559.547" stroke="#263238" stroke-width="1.0816" stroke-linecap="round" stroke-linejoin="round"/>
<path d="M705.529 599.61L626.49 576.557" stroke="#263238" stroke-width="1.0816" stroke-linecap="round" stroke-linejoin="round"/>
<path d="M697.246 614.159L618.431 593.567" stroke="#263238" stroke-width="1.0816" stroke-linecap="round" stroke-linejoin="round"/>
<path d="M688.513 627.588L611.713 609.011" stroke="#263238" stroke-width="1.0816" stroke-linecap="round" stroke-linejoin="round"/>
<path d="M678.662 640.345L606.788 623.335" stroke="#263238" stroke-width="1.0816" stroke-linecap="round" stroke-linejoin="round"/>
<path d="M671.496 650.864L600.294 639.002" stroke="#263238" stroke-width="1.0816" stroke-linecap="round" stroke-linejoin="round"/>
<path d="M703.738 399.74L711.351 402.874" stroke="#263238" stroke-width="1.0816" stroke-miterlimit="10"/>
<path d="M699.037 402.426L706.65 414.288" stroke="#263238" stroke-width="1.0816" stroke-miterlimit="10"/>
<path d="M695.007 402.874L693.439 410.484" stroke="#263238" stroke-width="1.0816" stroke-miterlimit="10"/>
<path d="M713.144 354.081H731.504" stroke="#263238" stroke-width="1.0816" stroke-miterlimit="10"/>
<path d="M699.037 354.977L725.458 362.586" stroke="#263238" stroke-width="1.0816" stroke-miterlimit="10"/>
<path d="M708.889 345.129L725.906 342.891" stroke="#263238" stroke-width="1.0816" stroke-miterlimit="10"/>
<path d="M648.435 403.321L653.137 416.974" stroke="#263238" stroke-width="1.0816" stroke-miterlimit="10"/>
<path d="M654.479 402.426L667.689 424.136" stroke="#263238" stroke-width="1.0816" stroke-miterlimit="10"/>
<path d="M659.181 389.892L671.943 394.144" stroke="#263238" stroke-width="1.0816" stroke-miterlimit="10"/>
<path d="M729.265 382.73L725.011 387.43L727.921 392.802L722.324 390.116L718.07 394.816L718.741 388.549L713.144 386.087L719.189 384.744L720.085 378.478L722.995 384.073L729.265 382.73Z" fill="#00B533" stroke="#263238" stroke-width="0.5408" stroke-linecap="round" stroke-linejoin="round"/>
<path d="M735.757 320.732L731.503 325.432L734.637 330.804L728.816 328.118L724.562 332.818L725.457 326.551L719.636 324.089L725.905 322.746L726.577 316.479L729.712 322.075L735.757 320.732Z" fill="#00B533" stroke="#263238" stroke-width="0.5408" stroke-linecap="round" stroke-linejoin="round"/>
<path d="M667.241 429.284L662.987 433.984L665.898 439.356L660.3 436.67L656.046 441.37L656.718 435.103L651.12 432.417L657.166 431.298L658.061 425.031L660.972 430.403L667.241 429.284Z" fill="#00B533" stroke="#263238" stroke-width="0.5408" stroke-linecap="round" stroke-linejoin="round"/>
<path d="M464.381 326.775C481.818 326.775 495.952 312.847 495.952 295.665C495.952 278.483 481.818 264.554 464.381 264.554C446.945 264.554 432.811 278.483 432.811 295.665C432.811 312.847 446.945 326.775 464.381 326.775Z" fill="#ADADAD" stroke="#263238" stroke-width="1.0816" stroke-linecap="round" stroke-linejoin="round"/>
<path d="M602.085 318.047C619.521 318.047 633.655 304.118 633.655 286.936C633.655 269.754 619.521 255.825 602.085 255.825C584.648 255.825 570.514 269.754 570.514 286.936C570.514 304.118 584.648 318.047 602.085 318.047Z" fill="#ADADAD" stroke="#263238" stroke-width="1.0816" stroke-linecap="round" stroke-linejoin="round"/>
<path d="M538.495 390.788C560.507 390.788 578.35 373.753 578.35 352.739C578.35 331.725 560.507 314.689 538.495 314.689C516.484 314.689 498.64 331.725 498.64 352.739C498.64 373.753 516.484 390.788 538.495 390.788Z" fill="#00B533" stroke="#263238" stroke-width="1.0816" stroke-linecap="round" stroke-linejoin="round"/>
<path d="M509.389 333.266L514.986 357.438C518.345 369.748 530.212 377.806 542.975 376.687C555.737 375.344 565.589 365.272 566.709 352.514L568.5 328.342L509.389 333.266Z" fill="#263238" stroke="#263238" stroke-width="1.0816" stroke-linecap="round" stroke-linejoin="round"/>
<path d="M473.115 231.652L458.337 291.412L606.563 279.325L584.62 222.476L473.115 231.652Z" fill="white" stroke="#263238" stroke-width="1.0816" stroke-linecap="round" stroke-linejoin="round"/>
<path d="M458.337 291.412L484.534 356.544L600.966 345.129L606.563 279.326L458.337 291.412Z" fill="#E5E5E5" stroke="#263238" stroke-width="1.0816" stroke-linecap="round" stroke-linejoin="round"/>
<path d="M525.06 318.046C524.612 327.223 516.552 334.609 506.924 335.28C497.296 335.951 487.668 329.908 485.652 320.732C483.413 310.212 491.25 299.917 503.789 299.021C516.328 298.126 525.284 307.303 525.06 318.046Z" fill="#00B533" stroke="#263238" stroke-width="1.0816" stroke-linecap="round" stroke-linejoin="round"/>
<path d="M517.449 318.494C517.225 324.537 512.299 329.461 506.254 329.685C499.984 330.356 494.387 326.328 493.043 320.284C491.924 314.018 496.85 307.974 504.239 307.527C510.732 306.855 516.777 311.556 517.449 318.046C517.449 318.046 517.449 318.27 517.449 318.494Z" fill="white" stroke="#263238" stroke-width="1.0816" stroke-linecap="round" stroke-linejoin="round"/>
<path d="M590.889 311.555C590.441 320.732 582.381 328.118 572.753 328.789C563.125 329.461 553.497 323.418 551.481 314.241C549.242 303.722 557.079 293.426 569.618 292.531C582.157 291.636 591.337 301.036 590.889 311.555Z" fill="#00B533" stroke="#263238" stroke-width="1.0816" stroke-linecap="round" stroke-linejoin="round"/>
<path d="M583.502 312.003C583.278 318.046 578.352 322.97 572.306 323.194C566.037 323.866 560.439 319.837 559.096 313.794C557.976 307.527 562.902 301.484 570.291 301.036C576.785 300.365 582.606 304.841 583.502 311.556C583.502 311.556 583.502 311.78 583.502 312.003Z" fill="white" stroke="#263238" stroke-width="1.0816" stroke-linecap="round" stroke-linejoin="round"/>
<path d="M525.732 344.905C522.821 344.905 520.358 342.667 520.358 339.757C520.358 337.071 522.374 334.609 525.06 334.386L553.497 331.476C556.407 331.252 559.094 333.266 559.318 336.176C559.542 339.086 557.527 341.772 554.616 341.995L526.404 344.905H525.732Z" fill="#263238" stroke="#263238" stroke-width="1.0816" stroke-linecap="round" stroke-linejoin="round"/>
<path d="M475.801 260.973C481.737 260.973 486.549 256.163 486.549 250.23C486.549 244.296 481.737 239.486 475.801 239.486C469.866 239.486 465.054 244.296 465.054 250.23C465.054 256.163 469.866 260.973 475.801 260.973Z" fill="#00B533" stroke="#263238" stroke-width="1.0816" stroke-linecap="round" stroke-linejoin="round"/>
<path d="M478.456 245.517C479.268 240.514 475.869 235.8 470.864 234.988C465.86 234.177 461.144 237.574 460.332 242.577C459.52 247.579 462.918 252.293 467.923 253.105C472.928 253.917 477.643 250.519 478.456 245.517Z" fill="#00B533" stroke="#263238" stroke-width="1.0816" stroke-linecap="round" stroke-linejoin="round"/>
<path d="M467.516 234.338C467.516 238.367 464.157 241.5 460.351 241.5C456.544 241.5 453.186 238.143 453.186 234.338C453.186 230.309 456.32 227.176 460.351 227.176C464.157 227.176 467.516 230.309 467.516 234.338Z" fill="#00B533" stroke="#263238" stroke-width="1.0816" stroke-linecap="round" stroke-linejoin="round"/>
<path d="M458.562 231.876L442.217 216.656" stroke="#263238" stroke-width="1.0816" stroke-linecap="round" stroke-linejoin="round"/>
<path d="M581.261 253.586C587.197 253.586 592.009 248.776 592.009 242.843C592.009 236.91 587.197 232.1 581.261 232.1C575.326 232.1 570.514 236.91 570.514 242.843C570.514 248.776 575.326 253.586 581.261 253.586Z" fill="#00B533" stroke="#263238" stroke-width="1.0816" stroke-linecap="round" stroke-linejoin="round"/>
<path d="M587.754 245.753C592.825 245.753 596.935 241.644 596.935 236.576C596.935 231.508 592.825 227.399 587.754 227.399C582.684 227.399 578.574 231.508 578.574 236.576C578.574 241.644 582.684 245.753 587.754 245.753Z" fill="#00B533" stroke="#263238" stroke-width="1.0816" stroke-linecap="round" stroke-linejoin="round"/>
<path d="M589.546 226.952C589.546 230.981 592.905 234.114 596.711 234.114C600.517 234.114 603.876 230.757 603.876 226.952C603.876 222.924 600.741 219.79 596.711 219.79C592.905 219.79 589.546 222.924 589.546 226.952Z" fill="#00B533" stroke="#263238" stroke-width="1.0816" stroke-linecap="round" stroke-linejoin="round"/>
<path d="M598.502 224.266L614.847 209.271" stroke="#263238" stroke-width="1.0816" stroke-linecap="round" stroke-linejoin="round"/>
<path d="M574.544 617.963C574.544 623.111 571.185 627.363 566.931 627.363C562.677 627.363 559.318 623.111 559.318 617.963C559.318 612.815 562.677 608.562 566.931 608.562C571.185 608.562 574.544 612.815 574.544 617.963Z" fill="white" stroke="#263238" stroke-width="1.0816" stroke-linecap="round" stroke-linejoin="round"/>
<path d="M589.77 625.797H589.098L567.827 622.664C565.588 622.216 564.244 620.202 564.692 617.963C565.14 615.949 566.931 614.606 568.947 614.83L590.218 617.963C592.457 618.187 594.024 620.202 593.8 622.216C593.576 624.454 591.785 626.021 589.77 625.797Z" fill="white" stroke="#263238" stroke-width="1.0816" stroke-miterlimit="10"/>
<path d="M292.645 661.832C289.958 657.356 290.406 651.984 293.989 649.746C297.571 647.507 302.721 649.298 305.408 653.551C308.095 657.803 307.423 663.399 304.065 665.637C300.706 667.875 295.556 666.084 292.645 661.832Z" fill="white" stroke="#263238" stroke-width="1.0816" stroke-linecap="round" stroke-linejoin="round"/>
<path d="M275.628 663.399C275.852 663.399 276.076 663.175 276.076 663.175L295.78 654.446C297.795 653.551 300.034 654.67 300.93 656.684C301.602 658.698 300.93 660.713 298.915 661.608L279.211 670.337C277.196 671.232 274.957 670.337 274.061 668.323C273.389 666.532 274.061 664.294 275.628 663.399Z" fill="white" stroke="#263238" stroke-width="1.0816" stroke-miterlimit="10"/>
<path d="M800.242 561.561C797.555 557.085 798.003 551.937 801.585 549.475C805.168 547.013 810.318 549.027 813.005 553.28C815.692 557.532 815.244 563.128 811.661 565.366C808.079 567.604 802.929 565.814 800.242 561.561Z" fill="white" stroke="#263238" stroke-width="1.0816" stroke-linecap="round" stroke-linejoin="round"/>
<path d="M783.225 563.128L783.673 562.904L803.377 554.175C805.392 553.28 807.631 553.951 808.75 555.966C809.646 557.98 808.974 560.218 806.959 561.337C806.959 561.337 806.735 561.337 806.735 561.561L787.031 570.29C785.016 571.186 782.777 570.29 781.882 568.276C780.986 566.261 781.658 564.023 783.225 563.128Z" fill="white" stroke="#263238" stroke-width="1.0816" stroke-miterlimit="10"/>
<path d="M421.393 666.084C412.437 666.084 405.271 670.337 405.271 675.708C405.271 681.08 412.437 685.332 421.393 685.332C430.349 685.332 437.514 681.08 437.514 675.708C437.514 670.337 430.349 666.084 421.393 666.084ZM421.393 680.408C416.691 680.408 413.108 678.17 413.108 675.484C413.108 672.799 416.915 670.56 421.393 670.56C425.871 670.56 429.677 672.799 429.677 675.484C429.677 678.17 426.095 680.408 421.393 680.408Z" fill="white" stroke="#263238" stroke-width="1.0816" stroke-miterlimit="10"/>
<path d="M567.155 667.428L556.184 662.951L545.212 667.428L542.525 677.276L550.138 685.109H562.453L570.066 677.276L567.155 667.428ZM559.318 680.185H553.049L549.243 676.156L550.586 671.232L556.184 668.994L561.781 671.232L563.125 676.156L559.318 680.185Z" fill="white" stroke="#263238" stroke-width="1.0816" stroke-linecap="round" stroke-linejoin="round"/>
<path d="M776.731 524.631L765.76 520.154L754.788 524.631L752.102 534.479L759.714 542.312H772.029L779.642 534.479L776.731 524.631ZM768.671 537.165H762.401L758.595 533.136L759.938 528.212L765.536 525.974L771.134 528.212L772.477 533.136L768.671 537.165Z" fill="white" stroke="#263238" stroke-width="1.0816" stroke-linecap="round" stroke-linejoin="round"/>
<path d="M641.045 690.033C640.821 690.033 640.373 690.033 640.149 689.809C638.582 689.137 637.462 688.018 636.567 686.675C635.447 684.661 634.328 681.304 636.343 676.156C637.686 672.351 641.045 669.218 645.075 668.322C650.225 666.979 655.599 668.322 659.629 671.68C660.749 672.575 660.972 674.142 660.077 675.261C659.181 676.38 657.39 676.604 656.27 675.708C653.584 673.47 649.777 672.575 646.419 673.47C644.179 674.142 642.164 675.708 641.493 678.17C639.477 683.542 641.94 684.885 642.388 685.109C643.732 685.78 644.403 687.123 643.732 688.466C643.06 689.361 642.164 690.033 641.045 690.033Z" fill="white" stroke="#263238" stroke-width="1.0816" stroke-linecap="round" stroke-linejoin="round"/>
<path d="M695.678 699.658C694.782 699.658 694.11 699.434 693.215 699.21L650.225 685.333C645.97 683.99 643.731 679.738 644.851 675.485C646.194 671.233 650.449 668.994 654.703 670.113C654.927 670.113 654.927 670.113 655.151 670.337L698.141 684.214C702.395 685.557 704.634 690.033 703.067 694.286C702.171 697.419 699.036 699.658 695.678 699.658Z" fill="white" stroke="#263238" stroke-width="1.0816" stroke-linecap="round" stroke-linejoin="round"/>
<path d="M648.881 684.885C648.881 684.885 650.672 673.918 664.33 673.694" stroke="#263238" stroke-width="1.0816" stroke-linecap="round" stroke-linejoin="round"/>
<path d="M658.286 687.347C658.286 687.347 660.077 676.38 673.736 676.156" stroke="#263238" stroke-width="1.0816" stroke-linecap="round" stroke-linejoin="round"/>
<path d="M666.347 690.481C666.347 690.481 668.138 679.514 681.796 679.29" stroke="#263238" stroke-width="1.0816" stroke-linecap="round" stroke-linejoin="round"/>
<path d="M674.854 692.943C674.854 692.943 676.645 681.976 690.303 681.752" stroke="#263238" stroke-width="1.0816" stroke-linecap="round" stroke-linejoin="round"/>
<path d="M683.363 695.852C683.363 695.852 685.155 684.885 698.813 684.661" stroke="#263238" stroke-width="1.0816" stroke-linecap="round" stroke-linejoin="round"/>
<path d="M695.679 699.657C695.455 699.657 695.007 699.657 694.783 699.433C693.216 698.761 692.096 697.642 691.2 696.299C690.081 694.285 688.961 690.928 690.976 685.78C692.32 681.975 695.679 679.065 699.709 677.946C704.859 676.603 710.232 677.946 714.263 681.304C715.382 682.199 715.606 683.766 714.711 684.885C713.815 686.004 712.024 686.228 710.904 685.332C708.217 683.094 704.411 682.199 701.052 683.094C698.813 683.766 696.798 685.332 696.126 687.794C694.111 693.166 696.574 694.509 697.022 694.733C698.365 695.404 699.037 696.971 698.365 698.314C697.694 698.985 696.798 699.657 695.679 699.657Z" fill="white" stroke="#263238" stroke-width="1.0816" stroke-linecap="round" stroke-linejoin="round"/>
</svg>
